HIERARCHY
ROOT Root
{
  OFFSET 6.90105 11.8871 -0.957331
  CHANNELS 6 Xposition Yposition Zposition Zrotation Xrotation Yrotation
  JOINT Spine
  {
    OFFSET 5.3114 0 0
    CHANNELS 3 Zrotation Xrotation Yrotation
    JOINT Spine1
    {
      OFFSET 2.79004 0 0
      CHANNELS 3 Zrotation Xrotation Yrotation
      JOINT Neck
      {
        OFFSET 1.43377 0 0
        CHANNELS 3 Zrotation Xrotation Yrotation
        JOINT Head
        {
          OFFSET 1.86043 0 0
          CHANNELS 3 Zrotation Xrotation Yrotation
          End Site
          {
            OFFSET 0 0 0
          }
        }
      }
      JOINT LeftArm
      {
        OFFSET 0.0387506 0 2.55754
        CHANNELS 3 Zrotation Xrotation Yrotation
        JOINT LeftForeArm
        {
          OFFSET 4.24845 0 0
          CHANNELS 3 Zrotation Xrotation Yrotation
          JOINT LeftHand
          {
            OFFSET 4.01008 0 0
            CHANNELS 3 Zrotation Xrotation Yrotation
            End Site
            {
              OFFSET 0 0 0
            }
          }
        }
      }
      JOINT RightArm
      {
        OFFSET 0.0387506 0 -2.55754
        CHANNELS 3 Zrotation Xrotation Yrotation
        JOINT RightForeArm
        {
          OFFSET -4.24845 0 0
          CHANNELS 3 Zrotation Xrotation Yrotation
          JOINT RightHand
          {
            OFFSET -4.01009 0 0
            CHANNELS 3 Zrotation Xrotation Yrotation
            End Site
            {
              OFFSET 0 0 0
            }
          }
        }
      }
    }
  }
  JOINT LeftUpLeg
  {
    OFFSET -1.23318 0 2.05692
    CHANNELS 3 Zrotation Xrotation Yrotation
    JOINT LeftLeg
    {
      OFFSET 5.46397 0 0
      CHANNELS 3 Zrotation Xrotation Yrotation
      JOINT LeftFoot
      {
        OFFSET 4.68898 0 0
        CHANNELS 3 Zrotation Xrotation Yrotation
        End Site
        {
          OFFSET 0 0 0
        }
      }
    }
  }
  JOINT RightUpLeg
  {
    OFFSET -1.24454 0 -2.05007
    CHANNELS 3 Zrotation Xrotation Yrotation
    JOINT RightLeg
    {
      OFFSET -5.46397 0 0
      CHANNELS 3 Zrotation Xrotation Yrotation
      JOINT RightFoot
      {
        OFFSET -4.68901 0 0
        CHANNELS 3 Zrotation Xrotation Yrotation
        End Site
        {
          OFFSET 0 0 0
        }
      }
    }
  }
}
MOTION
Frames: 27
Frame Time: 0.0083333
0 0 0 -60.7818 -86.3137 -158.444 -4.32666 16.2894 7.37128 -3.75663 4.93596 -3.31679 -0.911439 -6.70655 -12.8339 28.4453 -10.3567 25.3239 29.1886 -6.99632 -167.868 28.0977 1.5646 16.2467 1.76597 19.4044 174.153 -173.884 -33.7535 -172.316 25.6358 1.106 14.8584 2.20829 23.769 173.99 -27.3543 -28.6939 175.149 -24.404 -0.974509 -1.0777 25.3997 -25.2783 -170.201 -156.25 -12.5296 162.19 -0.000313372 -0.0219106 -0.87984 3.57253 -20.6766 178.436 
0 0 0 -60.7818 -86.3137 -158.444 -4.32666 16.2894 7.37128 -3.75663 4.93596 -3.31679 -0.911439 -6.70655 -12.8339 28.4453 -10.3567 25.3239 29.1886 -6.99632 -167.868 28.0977 1.5646 16.2467 1.76597 19.4044 174.153 -173.884 -33.7535 -172.316 25.6358 1.106 14.8584 2.20829 23.769 173.99 -27.3543 -28.6939 175.149 -24.404 -0.974509 -1.0777 25.3997 -25.2783 -170.201 -156.25 -12.5296 162.19 -0.000313372 -0.0219106 -0.87984 3.57253 -20.6766 178.436 
0 0 0 -89.3947 -69.8696 -178.004 -6.56132 -2.30559 5.14164 -5.58652 -0.293737 -1.49018 -4.17821 7.1293 2.00096 22.7495 14.8492 -7.34125 18.804 -5.72165 -175.541 31.1097 2.20943 17.9254 1.88215 20.5786 174.113 -151.665 -35.4352 -161.021 32.0319 2.42575 18.4342 1.16744 13.1213 174.325 -9.32584 -16.2876 172.424 -11.327 -0.801575 -0.994407 18.5766 -20.3445 -174.018 -163.725 -7.9098 177.827 -33.2057 -0.540091 -1.32451 -4.10616 -14.3859 175.244 
0 0 0 -90.3526 -71.3323 178.904 -6.31329 -2.50648 6.17298 -5.68599 -0.337809 -1.16481 -3.96685 6.58192 1.9097 21.8221 13.8544 -6.34393 19.1144 -5.74261 -175.992 30.6767 2.11124 17.6855 1.97136 21.3751 174.081 -153.566 -34.1774 -162.782 31.2897 2.25052 18.0251 1.17105 13.1582 174.323 -14.2744 -18.9429 174.511 -17.1996 -0.892657 -0.999158 22.045 -20.1418 -173.43 -162.054 -10.7492 173.79 -25.4852 -0.408607 -1.06564 -1.83621 -17.1119 175.579 
0 0 0 69.3774 -75.3177 -27.5861 -0.248684 13.5819 5.99099 -3.73792 3.89098 -0.993147 3.33525 -12.6079 -16.8563 14.3866 -21.9487 29.5706 16.1772 -14.4012 -170.75 29.5443 1.86282 17.0559 2.30819 24.7062 173.944 -167.069 -25.8697 -171.028 27.6598 1.47849 16.0008 1.82913 20.0952 174.13 -34.0824 -12.2296 174.658 -56.2752 -1.32926 -1.94051 11.2049 -13.6273 -179.694 -167.745 -10.2345 161.166 -0.234305 -0.229623 -0.87417 19.8124 -26.5743 -173.784 
0 0 0 89.6483 -3.07791 2.05822 -5.253 -0.0269194 -1.05965 5.86519 0.0224008 1.22098 -15.9622 0.736864 -3.62831 27.0049 1.0296 0.727853 12.2011 -23.6506 -171.011 21.5341 0.479051 12.5185 -0.769369 -8.72872 174.398 -171.378 4.52664 -170.081 21.3906 0.460197 12.4361 2.41311 25.6993 173.904 -1.06975 -5.04094 -178.762 -26.4837 -0.984808 -1.12906 28.7878 -7.74443 -179.257 172.796 -10.4888 -176.352 -32.3167 -0.766201 -1.31487 14.4163 10.2301 174.152 
0 0 0 89.0594 -3.21285 2.08307 -6.72199 -0.488179 -0.911876 5.90092 -0.0989341 1.46006 -15.565 0.911525 -3.24639 27.7048 1.26241 -0.173837 14.0554 -19.4717 -171.234 18.8351 0.159977 10.9641 -0.521314 -5.94185 174.432 -169.781 7.29311 -169.497 20.3116 0.325313 11.8158 2.67983 28.0737 173.783 0.570181 -4.76921 -178.76 -26.068 -0.983207 -1.12068 28.9908 -7.74397 -179.197 173.939 -9.96217 -176.247 -32.7282 -0.761374 -1.32778 14.0555 10.8384 174.121 
0 0 0 50.3571 -85.3079 -38.6016 -5.04313 7.01628 3.09635 -6.22103 2.01266 -2.39614 -0.542838 -4.97153 -12.3671 13.5752 -8.61059 17.7378 17.8962 -35.1004 -168.494 31.5079 2.30138 18.1456 1.37747 15.2657 174.273 -146.268 -59.4128 -157.894 29.4396 1.84031 16.9976 0.462356 5.2725 174.436 -2.91709 -17.8014 169.553 -27.372 -1.24947 -1.12281 29.2617 -14.9887 -173.806 177.462 -15.3505 176.048 -37.7598 -1.74546 -1.45156 41.4042 -24.1835 -165.477 
0 0 0 96.41 -5.1579 0.787263 -6.10088 -2.15299 1.87435 7.27822 -0.446797 2.765 -1.47154 0.100882 -0.892199 2.35037 -0.471359 -3.44844 6.99001 -33.8993 -171.299 34.7282 1.37205 20.3879 -5.87411 -36.0624 172.541 178.347 9.6329 -168.06 29.1017 0.300692 17.1605 -0.22146 -1.57543 174.452 -12.3056 -1.77267 177.817 -29.2172 0.573963 -0.750572 36.7254 -10.8058 -171.414 160.66 -10.8956 -178.132 -28.368 0.469125 -0.784854 3.52316 6.68416 -179.564 
0 0 0 60.9388 -78.7828 -27.3682 -2.86593 -3.5492 -0.832308 -6.51974 -1.10119 -0.470839 1.44178 -2.40621 -3.5674 13.9488 -13.1107 -24.8657 11.154 -6.41254 -177.421 30.2085 2.00689 17.4256 1.87685 20.5238 174.116 -165.55 14.0218 -165.569 25.65 1.10819 14.8667 1.38844 15.4804 174.266 5.64441 -20.9218 169.637 -19.5654 -1.05283 -1.0046 23.7312 -9.2498 -178.163 170.398 -24.5735 -179.785 -38.0074 -1.01146 -1.45637 20.9907 -16.1083 -178.335 
0 0 0 60.9388 -78.7828 -27.3682 -2.86593 -3.5492 -0.832308 -6.51974 -1.10119 -0.470839 1.44178 -2.40621 -3.5674 13.9488 -13.1107 -24.8657 11.154 -6.41254 -177.421 30.2085 2.00689 17.4256 1.87685 20.5238 174.116 -165.55 14.0218 -165.569 25.65 1.10819 14.8667 1.38844 15.4804 174.266 5.64441 -20.9218 169.637 -19.5654 -1.05283 -1.0046 23.7312 -9.2498 -178.163 170.398 -24.5735 -179.785 -38.0074 -1.01146 -1.45637 20.9907 -16.1083 -178.335 
0 0 0 89.7735 -84.0299 -1.69265 0.0365965 -3.49744 -3.01306 -5.69329 -1.08549 0.95449 -2.68768 -3.04449 -7.70015 29.3062 -5.16319 18.0995 15.3749 -37.4416 -170.713 28.1467 1.57434 16.2742 1.49399 16.5434 174.235 -162.418 -47.8249 -166.433 28.9078 1.72918 16.7004 1.01861 11.4916 174.355 15.8976 -20.0837 174.523 -7.74774 -0.718719 -0.982816 18.5575 -15.1594 -176.153 151.77 -22.1115 170.053 -30.2084 -0.851306 -1.17594 18.4062 -29.2855 -175.655 
0 0 0 89.7735 -84.0299 -1.69265 0.0365965 -3.49744 -3.01306 -5.69329 -1.08549 0.95449 -2.68768 -3.04449 -7.70015 29.3062 -5.16319 18.0995 15.3749 -37.4416 -170.713 28.1467 1.57434 16.2742 1.49399 16.5434 174.235 -162.418 -47.8249 -166.433 28.9078 1.72918 16.7004 1.01861 11.4916 174.355 15.8976 -20.0837 174.523 -7.74774 -0.718719 -0.982816 18.5575 -15.1594 -176.153 151.77 -22.1115 170.053 -30.2084 -0.851306 -1.17594 18.4062 -29.2855 -175.655 
0 0 0 89.7735 -84.0299 -1.69265 0.0365965 -3.49744 -3.01306 -5.69329 -1.08549 0.95449 -2.68768 -3.04449 -7.70015 29.3062 -5.16319 18.0995 15.3749 -37.4416 -170.713 28.1467 1.57434 16.2742 1.49399 16.5434 174.235 -162.418 -47.8249 -166.433 28.9078 1.72918 16.7004 1.01861 11.4916 174.355 15.8976 -20.0837 174.523 -7.74774 -0.718719 -0.982816 18.5575 -15.1594 -176.153 151.77 -22.1115 170.053 -30.2084 -0.851306 -1.17594 18.4062 -29.2855 -175.655 
0 0 0 89.7735 -84.0299 -1.69265 0.0365965 -3.49744 -3.01306 -5.69329 -1.08549 0.95449 -2.68768 -3.04449 -7.70015 29.3062 -5.16319 18.0995 15.3749 -37.4416 -170.713 28.1467 1.57434 16.2742 1.49399 16.5434 174.235 -162.418 -47.8249 -166.433 28.9078 1.72918 16.7004 1.01861 11.4916 174.355 15.8976 -20.0837 174.523 -7.74774 -0.718719 -0.982816 18.5575 -15.1594 -176.153 151.77 -22.1115 170.053 -30.2084 -0.851306 -1.17594 18.4062 -29.2855 -175.655 
0 0 0 80.8126 -68.5767 -3.31238 -2.62147 -11.2603 -5.54064 -4.75191 -3.44293 3.33409 -0.701053 0.23484 0.458971 15.8326 -1.22018 -5.98032 9.08102 -24.0472 -172.816 31.6984 2.34612 18.2507 1.62898 18.0311 174.205 -154.873 -13.2601 -163.283 27.599 1.46676 15.9666 1.44621 16.0654 174.242 16.9882 -12.9191 167.178 -8.14593 -0.821583 -0.997342 16.8846 -4.19735 179.33 152.862 -36.3375 179.613 -28.9655 -0.839708 -1.1412 21.5996 -15.3317 -178.582 
0 0 0 89.7735 -84.0299 -1.69265 0.0365965 -3.49744 -3.01306 -5.69329 -1.08549 0.95449 -2.68768 -3.04449 -7.70015 29.3062 -5.16319 18.0995 15.3749 -37.4416 -170.713 28.1467 1.57434 16.2742 1.49399 16.5434 174.235 -162.418 -47.8249 -166.433 28.9078 1.72918 16.7004 1.01861 11.4916 174.355 15.8976 -20.0837 174.523 -7.74774 -0.718719 -0.982816 18.5575 -15.1594 -176.153 151.77 -22.1115 170.053 -30.2084 -0.851306 -1.17594 18.4062 -29.2855 -175.655 
0 0 0 89.7735 -84.0299 -1.69265 0.0365965 -3.49744 -3.01306 -5.69329 -1.08549 0.95449 -2.68768 -3.04449 -7.70015 29.3062 -5.16319 18.0995 15.3749 -37.4416 -170.713 28.1467 1.57434 16.2742 1.49399 16.5434 174.235 -162.418 -47.8249 -166.433 28.9078 1.72918 16.7004 1.01861 11.4916 174.355 15.8976 -20.0837 174.523 -7.74774 -0.718719 -0.982816 18.5575 -15.1594 -176.153 151.77 -22.1115 170.053 -30.2084 -0.851306 -1.17594 18.4062 -29.2855 -175.655 
0 0 0 88.9563 -22.3779 0.684073 -3.0256 -7.90597 -1.02887 -5.96765 -2.41935 1.99714 -3.12418 12.4313 11.9672 20.9295 22.7067 -17.825 13.9597 -29.9735 -170.412 32.6737 2.58037 18.7875 1.45472 16.222 174.26 -155.158 -11.5343 -156.388 29.9081 1.94113 17.2585 1.4339 15.9337 174.245 4.53907 -10.2594 -177.023 -40.7246 -0.91518 -1.47525 4.98111 -1.69993 177.282 173.949 -20.8031 179.726 -24.9043 -0.756596 -0.76536 21.2961 -23.0863 -177.179 
0 0 0 88.9563 -22.3779 0.684073 -3.0256 -7.90597 -1.02887 -5.96765 -2.41935 1.99714 -3.12418 12.4313 11.9672 20.9295 22.7067 -17.825 13.9597 -29.9735 -170.412 32.6737 2.58037 18.7875 1.45472 16.222 174.26 -155.158 -11.5343 -156.388 29.9081 1.94113 17.2585 1.4339 15.9337 174.245 4.53907 -10.2594 -177.023 -40.7246 -0.91518 -1.47525 4.98111 -1.69993 177.282 173.949 -20.8031 179.726 -24.9043 -0.756596 -0.76536 21.2961 -23.0863 -177.179 
0 0 0 88.4099 -29.6829 -0.0104712 -2.82571 -8.64239 -0.41096 -5.83289 -2.62744 2.02735 -3.29567 11.5525 11.4267 21.1324 20.8849 -17.4966 12.9581 -28.0925 -171.624 31.0875 2.20343 17.9137 1.72039 18.9587 174.173 -154.966 -13.0419 -157.457 29.6084 1.87647 17.0918 1.44774 16.0788 174.241 6.23635 -10.8279 -178.117 -39.0282 -0.951514 -1.42735 8.82112 1.95057 176.967 171.393 -23.5198 179.511 -25.3349 -0.713823 -0.914148 21.4087 -21.0488 -177.526 
0 0 0 88.4099 -29.6829 -0.0104712 -2.82571 -8.64239 -0.41096 -5.83289 -2.62744 2.02735 -3.29567 11.5525 11.4267 21.1324 20.8849 -17.4966 12.9581 -28.0925 -171.624 31.0875 2.20343 17.9137 1.72039 18.9587 174.173 -154.966 -13.0419 -157.457 29.6084 1.87647 17.0918 1.44774 16.0788 174.241 6.23635 -10.8279 -178.117 -39.0282 -0.951514 -1.42735 8.82112 1.95057 176.967 171.393 -23.5198 179.511 -25.3349 -0.713823 -0.914148 21.4087 -21.0488 -177.526 
0 0 0 87.6803 -35.5007 -0.472079 -2.60329 -9.57634 -0.448255 -5.82664 -2.90415 2.18049 -2.73837 10.1002 9.92554 20.0254 17.9612 -16.4 13.7995 -29.1714 -171.724 31.3818 2.27209 18.076 1.73816 19.1609 174.166 -154.166 -13.8266 -158.618 29.6382 1.88287 17.1082 1.29618 14.4812 174.285 7.6229 -11.4335 -179.134 -36.5069 -0.909996 -1.36036 7.7734 5.56286 176.57 169.204 -25.2041 179.793 -26.1046 -0.708249 -0.938592 20.3484 -17.8352 -178.7 
0 0 0 60.9388 -78.7828 -27.3682 -2.86593 -3.5492 -0.832308 -6.51974 -1.10119 -0.470839 1.44178 -2.40621 -3.5674 13.9488 -13.1107 -24.8657 11.154 -6.41254 -177.421 30.2085 2.00689 17.4256 1.87685 20.5238 174.116 -165.55 14.0218 -165.569 25.65 1.10819 14.8667 1.38844 15.4804 174.266 5.64441 -20.9218 169.637 -19.5654 -1.05283 -1.0046 23.7312 -9.2498 -178.163 170.398 -24.5735 -179.785 -38.0074 -1.01146 -1.45637 20.9907 -16.1083 -178.335 
0 0 0 58.1724 -80.1129 -36.8227 -0.952462 3.595 9.30554 -4.54129 0.902441 0.166744 -1.48191 -4.45553 -11.9226 14.476 -8.38175 10.431 10.9338 -24.3757 -175.238 30.7106 2.11855 17.7044 2.40872 25.6607 173.906 -162.195 -24.3741 -163.774 27.0376 1.35941 15.6506 1.92067 20.9517 174.097 -7.57768 -1.94558 -174.787 -69.4201 -0.839637 -2.45246 -9.23036 -15.7602 174.077 177.917 -18.5391 166.931 -10.9661 -0.630677 -0.87804 31.3458 -30.0434 -167.929 
0 0 0 79.4603 36.8234 9.06797 -3.74965 -8.6598 11.7094 -2.50778 -2.36393 -1.31992 -3.38719 15.9938 8.55431 47.2417 25.4053 -23.0701 12.2303 -20.0484 -173.094 24.8166 0.96713 14.3936 1.59236 17.622 174.207 -154.929 8.27653 -166.582 21.7623 0.509518 12.6495 2.83503 29.481 173.709 -9.11197 13.1197 -175.934 -36.261 -1.33526 -1.35839 23.9229 -19.5347 -174.516 -168.387 -19.5406 177.024 -31.8214 -1.20518 -1.2345 29.0524 -27.1877 -171.63 
0 0 0 79.4603 36.8234 9.06797 -3.74965 -8.6598 11.7094 -2.50778 -2.36393 -1.31992 -3.38719 15.9938 8.55431 47.2417 25.4053 -23.0701 12.2303 -20.0484 -173.094 24.8166 0.96713 14.3936 1.59236 17.622 174.207 -154.929 8.27653 -166.582 21.7623 0.509518 12.6495 2.83503 29.481 173.709 -9.11197 13.1197 -175.934 -36.261 -1.33526 -1.35839 23.9229 -19.5347 -174.516 -168.387 -19.5406 177.024 -31.8214 -1.20518 -1.2345 29.0524 -27.1877 -171.63 
